# xmcd
#
# Track frame offsets:
#	150
#	15252
#	28744
#	39416
#	50838
#	62410
#	75917
#	88389
#	101516
#	111923
#	123700
#	137362
#	150564
#	163426
#	178313
#	189075
#	199742
#	211684
#	223821
#	235593
#	251840
#	261977
#	271664
#	282036
#	293713
#
# Disc length: 4152
#
# Revision: 1
# Processed by: cddbd v1.5.1PL0 Copyright (c) Steve Scherf et al.
# Submitted via: dBpowerAMP V4.0
# Normalized: r0:TDELIM( - )
#
DISCID=62103619
DTITLE=Various Artist - 25 Greatest Country Hits of All Time
DYEAR=1900
DGENRE=Country
TTITLE0=Don Gibson - I Cant' Stop Loving You
TTITLE1=Bobby Bare - Detroit City
TTITLE2=Dave Dudley - Six Days On The Road
TTITLE3=Roger Miller - King of the Road
TTITLE4=Sandy Posey - Single Girl
TTITLE5=Jimmy Dean - Big Bad John
TTITLE6=George Jones - She Thinks I Still Care
TTITLE7=Bill Anderson - Still
TTITLE8=Skeeter Davis - My Last Date
TTITLE9=Conway Twitty - Hello Darlin'
TTITLE10=Faron Young - Four in the Morning
TTITLE11=Lynn Anderson - Rose Garden
TTITLE12=Johnny Cash - Ring of Fire
TTITLE13=Loretta Lynn - Coal Miner's Daughter
TTITLE14=Ferlin Husky - The Wings of a Dove
TTITLE15=Sami Smith - Help me make it through the Night
TTITLE16=Don Gibson - Oh Lonsesome Me
TTITLE17=Tammy Wynette - Stand by your Man
TTITLE18=The Kendalls - Heaven's just a Sin Away
TTITLE19=Willie Nelson - Always on my Mind
TTITLE20=Mickey Gilley - Fraulein
TTITLE21=Charley Pride - Kiss An Angel Good Morning
TTITLE22=Jim Reeves - He'll have to Go
TTITLE23=Patsy Cline - Walking after Midnight
TTITLE24=Don Williams - I Believe in You
EXTD=25 Greatest County Hits of all Times - Platinum Collection \nSubmitted by Kim
EXTT0=
EXTT1=
EXTT2=
EXTT3=
EXTT4=
EXTT5=
EXTT6=
EXTT7=
EXTT8=
EXTT9=
EXTT10=
EXTT11=
EXTT12=
EXTT13=
EXTT14=
EXTT15=
EXTT16=
EXTT17=
EXTT18=
EXTT19=
EXTT20=
EXTT21=
EXTT22=
EXTT23=
EXTT24=
PLAYORDER=
